<svg xmlns="http://www.w3.org/2000/svg" viewBox="0 0 500 500"><defs><linearGradient id="screen" x1="0" y1="0" x2="1" y2="1"><stop stop-color="#37d5a5" stop-opacity=".55"/><stop offset="1" stop-color="#0c1220"/></linearGradient></defs><circle cx="250" cy="250" r="210" fill="#37d5a5" opacity=".06"/><path d="M62 120h376l30 240H32z" fill="#171d2b" stroke="#37d5a5" stroke-width="5"/><rect x="85" y="145" width="31" height="26" rx="5" fill="#293145"/><rect x="127" y="145" width="31" height="26" rx="5" fill="#293145"/><rect x="169" y="145" width="31" height="26" rx="5" fill="#293145"/><rect x="211" y="145" width="31" height="26" rx="5" fill="#293145"/><rect x="253" y="145" width="31" height="26" rx="5" fill="#293145"/><rect x="295" y="145" width="31" height="26" rx="5" fill="#293145"/><rect x="337" y="145" width="31" height="26" rx="5" fill="#293145"/><rect x="379" y="145" width="31" height="26" rx="5" fill="#293145"/><rect x="85" y="183" width="31" height="26" rx="5" fill="#293145"/><rect x="127" y="183" width="31" height="26" rx="5" fill="#293145"/><rect x="169" y="183" width="31" height="26" rx="5" fill="#293145"/><rect x="211" y="183" width="31" height="26" rx="5" fill="#293145"/><rect x="253" y="183" width="31" height="26" rx="5" fill="#293145"/><rect x="295" y="183" width="31" height="26" rx="5" fill="#293145"/><rect x="337" y="183" width="31" height="26" rx="5" fill="#293145"/><rect x="379" y="183" width="31" height="26" rx="5" fill="#293145"/><rect x="85" y="221" width="31" height="26" rx="5" fill="#293145"/><rect x="127" y="221" width="31" height="26" rx="5" fill="#293145"/><rect x="169" y="221" width="31" height="26" rx="5" fill="#293145"/><rect x="211" y="221" width="31" height="26" rx="5" fill="#293145"/><rect x="253" y="221" width="31" height="26" rx="5" fill="#293145"/><rect x="295" y="221" width="31" height="26" rx="5" fill="#293145"/><rect x="337" y="221" width="31" height="26" rx="5" fill="#293145"/><rect x="379" y="221" width="31" height="26" rx="5" fill="#293145"/><rect x="147" y="274" width="206" height="28" rx="6" fill="#37d5a5" opacity=".65"/><text x="250" y="472" fill="#aeb7ca" text-anchor="middle" font-family="Arial, sans-serif" font-size="18" font-weight="700" letter-spacing="3">PULSE KEYS</text></svg>